<svg width="512.171" height="512.171" xmlns="http://www.w3.org/2000/svg" xmlns:svg="http://www.w3.org/2000/svg">
 <g>
  <title>Layer 1</title>
  <g id="svg_1">
   <g id="svg_2">
    <path fill="#d82424" id="svg_3" d="m479.046,283.925c-1.664,-3.989 -5.547,-6.592 -9.856,-6.592l-116.885,0l0,-266.666c0,-5.888 -4.779,-10.667 -10.667,-10.667l-170.667,0c-5.888,0 -10.667,4.779 -10.667,10.667l0,266.667l-117.333,0c-4.309,0 -8.192,2.603 -9.856,6.571c-1.643,3.989 -0.747,8.576 2.304,11.627l212.8,213.504c2.005,2.005 4.715,3.136 7.552,3.136s5.547,-1.131 7.552,-3.115l213.419,-213.504c3.051,-3.052 3.968,-7.638 2.304,-11.628z"/>
   </g>
  </g>
  <g id="svg_4"/>
  <g id="svg_5"/>
  <g id="svg_6"/>
  <g id="svg_7"/>
  <g id="svg_8"/>
  <g id="svg_9"/>
  <g id="svg_10"/>
  <g id="svg_11"/>
  <g id="svg_12"/>
  <g id="svg_13"/>
  <g id="svg_14"/>
  <g id="svg_15"/>
  <g id="svg_16"/>
  <g id="svg_17"/>
  <g id="svg_18"/>
 </g>
</svg>