<svg height="511pt" viewBox="0 1 511 511.999" width="511pt" xmlns="http://www.w3.org/2000/svg"><path d="m82.882812 172.773438 1 6.039062c5.355469 35.046875 36.179688 61.472656 71.703126 61.472656h122.132812c11.042969 0 20-8.953125 20-20v-53.023437c0-40.058594-32.476562-72.53125-72.535156-72.53125h-224.683594c3.03125 13.046875 0 78.046875 70.648438 78.046875h11.734374zm0 0"/><path d="m467.496094 23.003906h-28.160156c-.039063.027344-.078126.054688-.117188.085938l-22.292969-16.011719c-7.246093-4.632813-15.621093-7.078125-24.222656-7.078125h-57.382813c-12.1875 0-23.597656 4.789062-32.132812 13.488281-8.523438 8.695313-13.09375 20.1875-12.855469 32.359375.210938 11.011719-.203125 24.871094-.644531 39.542969-.023438.722656-.042969 1.457031-.066406 2.179687 23.222656 18.8125 38.09375 47.546876 38.09375 79.691407v53.023437c0 27.570313-22.429688 50-50 50h-99.691406c-.417969 0-.832032.015625-1.253907.015625h-38.792969c-.050781 0-.105468 0-.160156 0-.554687.007813-1.105468.023438-1.65625.039063-.558594-.011719-1.113281-.039063-1.679687-.039063-50.292969.542969-90.769531 41.484375-90.730469 91.769531l.097656 127.027344c.019532 12.648438 10.28125 22.894532 22.929688 22.894532l214.351562.003906v-27.445313c0-25.324219-20.53125-45.851562-45.859375-45.851562h-84.113281c60.953125-6.113281 133.414062-31.800781 175.480469-32.746094l11.726562 105.582031h.21875l-.234375.464844h107.996094v-33.671875c0-18.597656-15.082031-33.671875-33.683594-33.671875h-6.929687v-45.972656c.152343-.03125.304687-.054688.457031-.089844 74.46875-16.683594 90.101562-59.515625 90.101562-92.511719 0-48.449219-30.03125-83.429687-39.246093-93.019531l-36.832031-93.699219 19.121093-6.195312v-.171875c0 .003906 0 .003906.003907.003906h43.160156v14c0 8.285156 6.71875 15 15 15 8.285156 0 15-6.714844 15-15v-58.996094c0-24.8125-20.183594-45-45-45zm0 0"/></svg>