<svg height="512" viewBox="0 -9 512.00337 512" width="512" xmlns="http://www.w3.org/2000/svg"><path d="m34.109375 392.019531c15.617187.042969 29.257813-10.550781 33.078125-25.691406s-3.15625-30.9375-16.925781-38.308594c9.75-15.296875 27.542969-23.476562 45.5-20.917969 23.753906 3.730469 41.132812 24.378907 40.75 48.421876v45.027343c0 4.714844 3.820312 8.535157 8.53125 8.535157h42.667969v-52.617188c.574218-40.042969-30.644532-73.359375-70.640626-75.382812-30.335937-.832032-57.953124 17.394531-69.121093 45.609374-4.355469-1.941406-9.070313-2.945312-13.839844-2.941406-1.121094.054688-2.242187.167969-3.351563.339844 12.765626-37.152344 48.375-61.542969 87.628907-60.023438 48.875 2.703126 86.953125 43.417969 86.390625 92.363282v52.652344h42.664062v-164.011719c-5.023437-8.320313-11.042968-16-17.917968-22.867188-8.621094-8.636719-18.523438-15.890625-29.355469-21.503906-37.03125-19.261719-81.433594-17.796875-117.117188 3.863281-35.683593 21.660156-57.472656 60.375-57.472656 102.117188v18.28125c-16.625 4.277344-27.46875 20.257812-25.304687 37.289062 2.167968 17.03125 16.667968 29.785156 33.835937 29.765625zm0 0"/><path d="m486.375 324.964844v-14.609375c.734375-64.808594-49.378906-118.855469-114.054688-123.015625-24.640624-1.167969-49.027343 5.398437-69.75 18.773437-7.265624 4.636719-14.015624 10.03125-20.140624 16.09375-6.875 6.867188-12.894532 14.546875-17.917969 22.867188v164.011719h42.664062v-52.632813c-.566406-48.957031 37.515625-89.679687 86.402344-92.382813 24.875-.964843 49.023437 8.511719 66.601563 26.144532 9.433593 9.59375 16.613281 21.164062 21.015624 33.878906-1.109374-.171875-2.230468-.285156-3.351562-.339844-4.757812.007813-9.457031 1.019532-13.796875 2.96875-3.632813-9.148437-9.070313-17.472656-15.984375-24.476562-14.046875-14.082032-33.289062-21.738282-53.171875-21.160156-40 2.023437-71.222656 35.34375-70.648437 75.390624v52.609376h42.667968c4.710938 0 8.53125-3.820313 8.53125-8.535157v-44.976562c-.398437-24.023438 16.929688-44.6875 40.65625-48.480469 14.5-1.953125 29.085938 2.941406 39.472656 13.246094 2.296876 2.34375 4.34375 4.917968 6.121094 7.679687-14.398437 7.804688-21.207031 24.75-16.210937 40.347657 4.992187 15.597656 20.378906 25.433593 36.632812 23.421874 16.253907-2.011718 28.777344-15.300781 29.820313-31.644531 1.042968-16.347656-9.691406-31.121093-25.558594-35.179687zm0 0"/><path d="m416.726562 93.488281c-9.085937-57.054687-60.441406-97.578125-118.042968-93.15625-57.605469 4.421875-102.167969 52.316407-102.441406 110.085938v69.804687c4.035156 1.542969 7.96875 3.339844 11.777343 5.375 12.382813 6.371094 23.699219 14.632813 33.535157 24.492188 2.046874 2.046875 4.011718 4.179687 5.886718 6.3125v-59.050782c.03125-36.234374 21.867188-68.890624 55.34375-82.765624 33.476563-13.871094 72.007813-6.230469 97.660156 19.363281.90625.9375 1.828126 1.960937 2.738282 2.988281-5.222656 2.53125-9.714844 6.347656-13.0625 11.09375-.589844-.640625-1.203125-1.425781-1.792969-1.972656-13.558594-13.667969-32.035156-21.320313-51.285156-21.238282-40.046875.027344-72.503907 32.484376-72.53125 72.53125v59.050782c1.875-2.132813 3.753906-4.179688 5.800781-6.230469 7.039062-6.964844 14.789062-13.171875 23.125-18.515625 4.417969-2.839844 9.007812-5.40625 13.738281-7.679688v-26.625c.011719-19.550781 10.3125-37.648437 27.113281-47.644531 16.800782-9.992187 37.625-10.402343 54.808594-1.082031l.453125.273438c-8.484375 13.089843-7.003906 30.265624 3.59375 41.710937 10.597657 11.441406 27.609375 14.230469 41.308594 6.773437 13.699219-7.457031 20.589844-23.257812 16.734375-38.371093-3.859375-15.113281-17.480469-25.679688-33.078125-25.660157-.476563 0-.914063.121094-1.382813.136719zm0 0"/><path d="m407.179688 426.152344h-302.40625c-2.625 0-5.105469 1.210937-6.722657 3.28125-1.617187 2.070312-2.1875 4.769531-1.554687 7.316406l12.800781 51.199219c.949219 3.800781 4.359375 6.46875 8.277344 6.46875h276.804687c3.917969 0 7.328125-2.667969 8.277344-6.46875l12.800781-51.199219c.632813-2.546875.0625-5.246094-1.554687-7.316406-1.617188-2.070313-4.097656-3.28125-6.722656-3.28125zm0 0"/></svg>