<svg height="512pt" viewBox="-40 0 512 512" width="512pt" xmlns="http://www.w3.org/2000/svg"><path d="m298.179688 195.023438c-16.441407 0-29.820313 13.378906-29.820313 29.820312 0 16.445312 13.378906 29.820312 29.820313 29.820312 16.441406 0 29.820312-13.375 29.820312-29.820312 0-16.441406-13.375-29.820312-29.820312-29.820312zm0 0"/><path d="m369.566406 63.40625c-40.886718-40.886719-95.253906-63.40625-153.078125-63.40625-57.828125 0-112.191406 22.519531-153.082031 63.40625-40.886719 40.890625-63.40625 95.253906-63.40625 153.082031v119.441407l51.980469 53.085937h25.015625v122.984375h53.992187v-76.492188h30v76.492188h40.5v-76.492188h30v76.492188h40.5v-76.492188h30v76.492188h53.992188v-122.984375h25.011719l51.984374-53.085937v-119.441407c0-57.828125-22.519531-112.191406-63.410156-153.082031zm-234.769531 221.261719c-32.984375 0-59.820313-26.835938-59.820313-59.820313 0-32.988281 26.835938-59.824218 59.820313-59.824218s59.820313 26.835937 59.820313 59.824218c0 32.984375-26.835938 59.820313-59.820313 59.820313zm117.488281 71.84375-35.796875-31-35.796875 31-19.640625-22.679688 55.4375-48.007812 55.4375 48.007812zm45.894532-71.84375c-32.984376 0-59.820313-26.835938-59.820313-59.820313 0-32.988281 26.835937-59.824218 59.820313-59.824218 32.984374 0 59.820312 26.835937 59.820312 59.824218 0 32.984375-26.835938 59.820313-59.820312 59.820313zm0 0"/><path d="m134.796875 195.023438c-16.445313 0-29.820313 13.378906-29.820313 29.820312 0 16.445312 13.375 29.820312 29.820313 29.820312 16.441406 0 29.820313-13.375 29.820313-29.820312 0-16.441406-13.378907-29.820312-29.820313-29.820312zm0 0"/></svg>