<svg width="512" height="512" xmlns="http://www.w3.org/2000/svg">

 <g>
  <title>background</title>
  <rect fill="none" id="canvas_background" height="402" width="582" y="-1" x="-1"/>
 </g>
 <g>
  <title>Layer 1</title>
  <path fill="#991621" id="svg_1" d="m297.068576,195.02344c-16.44141,0 -29.82031,13.3789 -29.82031,29.82031c0,16.44531 13.3789,29.82031 29.82031,29.82031c16.4414,0 29.82031,-13.375 29.82031,-29.82031c0,-16.44141 -13.375,-29.82031 -29.82031,-29.82031zm0,0"/>
  <path fill="#991621" id="svg_2" d="m369.56641,63.40625c-40.88672,-40.88672 -95.25391,-63.40625 -153.07813,-63.40625c-57.82812,0 -112.19141,22.51953 -153.08203,63.40625c-40.88672,40.89063 -63.40625,95.25391 -63.40625,153.08203l0,119.44141l51.98047,53.08594l25.01562,0l0,122.98437l53.99219,0l0,-76.49219l30,0l0,76.49219l40.5,0l0,-76.49219l30,0l0,76.49219l40.5,0l0,-76.49219l30,0l0,76.49219l53.99219,0l0,-122.98437l25.01172,0l51.98437,-53.08594l0,-119.44141c0,-57.82812 -22.51953,-112.1914 -63.41015,-153.08203zm-234.76954,221.26172c-32.98437,0 -59.82031,-26.83594 -59.82031,-59.82031c0,-32.98829 26.83594,-59.82422 59.82031,-59.82422s59.82032,26.83593 59.82032,59.82422c0,32.98437 -26.83594,59.82031 -59.82032,59.82031zm117.48829,71.84375l-35.79688,-31l-35.79687,31l-19.64063,-22.67969l55.4375,-48.00781l55.4375,48.00781l-19.64062,22.67969zm45.89453,-71.84375c-32.98438,0 -59.82032,-26.83594 -59.82032,-59.82031c0,-32.98829 26.83594,-59.82422 59.82032,-59.82422c32.98437,0 59.82031,26.83593 59.82031,59.82422c0,32.98437 -26.83594,59.82031 -59.82031,59.82031zm0,0"/>
  <path fill="#991621" id="svg_3" d="m133.685766,195.02344c-16.44532,0 -29.82032,13.3789 -29.82032,29.82031c0,16.44531 13.375,29.82031 29.82032,29.82031c16.4414,0 29.82031,-13.375 29.82031,-29.82031c0,-16.44141 -13.37891,-29.82031 -29.82031,-29.82031zm0,0"/>
 </g>
</svg>