<?xml version="1.0" encoding="iso-8859-1"?>
<!-- Generator: Adobe Illustrator 19.0.0, SVG Export Plug-In . SVG Version: 6.00 Build 0)  -->
<svg version="1.1" id="Layer_1" xmlns="http://www.w3.org/2000/svg" xmlns:xlink="http://www.w3.org/1999/xlink" x="0px" y="0px"
	 viewBox="0 0 512.325 512.325" style="enable-background:new 0 0 512.325 512.325;" xml:space="preserve">
<g transform="translate(1 1)">
	<g>
		<g>
			<path d="M94.458,420.044c-9.546,0-17.356,7.81-17.356,17.356c0,9.546,7.81,17.356,17.356,17.356s17.356-7.81,17.356-17.356
				C111.814,427.854,104.003,420.044,94.458,420.044z"/>
			<path d="M320.085,420.044c-9.546,0-17.356,7.81-17.356,17.356c0,9.546,7.81,17.356,17.356,17.356
				c9.546,0,17.356-7.81,17.356-17.356C337.441,427.854,329.63,420.044,320.085,420.044z"/>
			<path d="M511,262.973l-8.678-34.712c0-2.603-1.736-5.207-4.339-6.075l-10.225-5.113c3.922-15.637,5.886-35.412,5.886-56.501
				c0-29.584-4.669-60.601-14.235-78.969h5.557c5.207,0,8.678-3.471,8.678-8.678V20.858c0-5.207-3.471-8.678-8.678-8.678h-52.068
				c-5.207,0-8.678,3.471-8.678,8.678v20.667l-156.203,78.102v-5.046c0-8.678-6.942-15.62-15.62-15.62h-72.895
				c-8.678,0-15.62,6.942-15.62,15.62v30.32L48.425,186.143l0.055,0.153c-0.56,0.144-1.12,0.343-1.68,0.63L4.207,203.963
				C0.736,204.83-1,208.302-1,211.773v43.39c0,5.207,3.471,8.678,8.678,8.678h43.39h43.39c5.207,0,8.678-3.471,7.81-8.678v-43.39
				c0-3.471-1.736-6.075-5.207-7.81l-22.138-8.855l88.959-31.778v11.996L80.573,341.942H18.092C7.678,341.942-1,350.62-1,361.034
				v65.953c0,10.414,8.678,19.092,19.092,19.092h16.233c4.144,29.649,29.24,52.068,60.133,52.068s55.989-22.419,60.133-52.068
				h105.361c4.144,29.649,29.24,52.068,60.133,52.068c30.893,0,55.989-22.419,60.133-52.068h16.233
				c10.414,0,19.091-8.678,19.091-19.092v-24.298h26.034v17.356c0,5.207,3.471,8.678,8.678,8.678c5.207,0,8.678-3.471,8.678-8.678
				v-17.356h17.356c5.207,0,8.678-3.471,8.678-8.678c0-5.207-3.471-8.678-8.678-8.678h-60.746v-24.298
				c0-10.414-8.678-19.092-19.091-19.092h-45.125l-83.308-166.617V139.03L424.22,60.928v11.997c0,5.207,3.471,8.678,8.678,8.678
				h5.557c-9.566,18.369-14.235,49.386-14.235,78.969c0,25.18,2.864,48.909,8.572,66.059l-14.646,14.646
				c-2.603,1.736-3.471,5.207-2.603,7.81l8.678,34.712c0.868,2.603,3.471,5.207,6.942,6.075l43.39,8.678c0.868,0,0.868,0,1.736,0
				c2.603,0,4.339-0.868,6.075-1.736l26.034-26.034C511,269.047,511.868,265.576,511,262.973z M16.356,217.847l26.034-10.414v39.051
				H16.356V217.847z M85.78,246.485H59.746v-39.051l26.034,10.414V246.485z M181.237,116.315h69.424v52.068h-29.505h-10.414h-29.505
				V116.315z M171.652,274.119l30.827,67.823h-62.581L171.652,274.119z M292,341.942h-62.639l30.871-67.854L292,341.942z
				 M215.922,329.572l-34.596-76.115l31.704-67.718h5.838l31.693,67.695L215.922,329.572z M177.766,185.739h15.62l-72.895,156.203
				H99.664L177.766,185.739z M94.458,480.79c-24.298,0-43.39-19.092-43.39-43.39c0-24.298,19.091-43.39,43.39-43.39
				c24.298,0,43.39,19.091,43.39,43.39C137.847,461.698,118.756,480.79,94.458,480.79z M320.085,480.79
				c-24.298,0-43.39-19.092-43.39-43.39c0-24.298,19.091-43.39,43.39-43.39c24.298,0,43.39,19.091,43.39,43.39
				C363.475,461.698,344.383,480.79,320.085,480.79z M396.451,359.298c0.868,0,1.736,0.868,1.736,1.736v65.953
				c0,0.868-0.868,1.736-1.736,1.736h-16.233c-4.144-29.649-29.24-52.068-60.133-52.068c-0.141,0-0.279,0.009-0.419,0.01
				c-0.15-0.001-0.299-0.01-0.449-0.01c-30.373,0-55.539,22.563-59.878,52.068H154.591c-3.886-27.803-26.199-49.238-54.438-51.8
				c-0.201-0.019-0.404-0.028-0.605-0.045c-0.716-0.058-1.432-0.117-2.155-0.15c-0.973-0.047-1.951-0.073-2.935-0.073
				s-1.962,0.026-2.935,0.073c-0.723,0.034-1.439,0.092-2.155,0.15c-0.201,0.017-0.405,0.026-0.605,0.045
				c-28.239,2.562-50.552,23.996-54.438,51.8H18.092c-0.868,0-1.736-0.868-1.736-1.736v-65.953c0-0.868,0.868-1.736,1.736-1.736
				h53.803h59.878h168.353h59.878H396.451z M311.407,341.942l-72.895-156.203h15.62l78.102,156.203H311.407z M441.576,29.536h34.712
				v34.712h-34.712V29.536z M476.288,159.705c0,18.224-1.736,34.712-4.339,48.597l-8.678-4.339
				c-3.471-1.736-7.81-0.868-10.414,1.736l-6.075,6.075c-3.471-14.753-5.207-32.976-5.207-52.068
				c0-50.332,13.017-76.366,17.356-78.102C463.271,83.339,476.288,108.505,476.288,159.705z M473.685,280.329l-33.844-6.942
				l-6.075-24.298l13.035-13.035c0.97-0.423,1.857-0.989,2.585-1.717l11.281-11.281l13.017,6.075
				c0.374,0.187,0.794,0.325,1.24,0.432l10.91,5.643l6.942,26.034L473.685,280.329z"/>
			<path d="M224.627,142.349c0-5.207-3.471-8.678-8.678-8.678s-8.678,3.471-8.678,8.678s3.471,8.678,8.678,8.678
				S224.627,147.556,224.627,142.349z"/>
		</g>
	</g>
</g>
<g>
</g>
<g>
</g>
<g>
</g>
<g>
</g>
<g>
</g>
<g>
</g>
<g>
</g>
<g>
</g>
<g>
</g>
<g>
</g>
<g>
</g>
<g>
</g>
<g>
</g>
<g>
</g>
<g>
</g>
</svg>
