<svg height="512pt" viewBox="0 0 512 512.001" width="512pt" xmlns="http://www.w3.org/2000/svg"><path d="m467 23.003906h-25.636719l-24.933593-15.925781c-7.246094-4.632813-15.621094-7.078125-24.222657-7.078125h-57.382812c-12.1875 0-23.601563 4.789062-32.132813 13.488281-8.527344 8.695313-13.09375 20.1875-12.859375 32.359375.320313 16.488282.425781 39.667969-.535156 64.234375-5.765625-1.089843-11.710937-1.667969-17.789063-1.667969h-256.507812c-8.285156 0-15 6.71875-15 15 0 25.566407 9.957031 49.601563 28.035156 67.679688 18.078125 18.074219 42.113282 28.03125 67.609375 28.027344h.070313c3.105468 20.316406 12.632812 38.539062 26.433594 52.554687-19.410157 3.316407-37.261719 12.570313-51.363282 26.835938-17.710937 17.921875-27.453125 41.664062-27.4375 66.859375l.085938 111.671875c.027344 19.273437 15.726562 34.953125 35 34.953125l186.9375.003906c3.980468 0 7.796875-1.582031 10.605468-4.394531 2.816407-2.8125 4.394532-6.625 4.394532-10.605469v-22.199219c0-26.003906-18.144532-47.832031-42.429688-53.535156 24.261719-7.089844 50.886719-13.261719 77.160156-14.90625l10.101563 90.9375c.050781 2.636719.796875 5.257813 2.226563 7.578125 2.734374 4.429688 7.566406 7.125 12.769531 7.125h99.714843c8.285157 0 15-6.714844 15-15v-31.097656c0-22.480469-16.175781-41.253906-37.5-45.292969v-25c38.140626-10.953125 78.378907-35.355469 78.378907-89.523437 0-48.449219-30.03125-83.433594-39.246094-93.023438l-36.832031-93.699219 19.65625-6.359375h42.628906v14c0 8.28125 6.714844 15 15 15s15-6.71875 15-15v-59c0-24.8125-20.183594-45-45-45zm-371.285156 166.121094c-17.554688 0-34.054688-6.835938-46.46875-19.246094-8.792969-8.792968-14.789063-19.640625-17.535156-31.460937h239.796874c8.796876 0 17.195313 1.75 24.871094 4.902343.625.324219 1.273438.605469 1.945313.839844 22.898437 10.28125 38.894531 33.28125 38.894531 59.964844v66.160156h-146.886719c-31.199219 0-57.386719-21.835937-64.066406-51.019531l76.996094.355469h.070312c8.253907 0 14.960938-6.671875 15-14.929688.039063-8.285156-6.644531-15.03125-14.929687-15.070312zm299.582031-93.390625c-3.9375 1.273437-7.171875 4.121094-8.941406 7.859375-1.769531 3.742188-1.914063 8.046875-.398438 11.898438l43.8125 111.449218c.820313 2.085938 2.0625 3.929688 3.703125 5.457032.320313.304687 32.320313 31 32.320313 73.6875 0 10.734374-.011719 41.175781-48.378907 58.074218v-16.160156c0-8.28125-6.714843-15-15-15-8.28125 0-15 6.71875-15 15v36.148438c.003907.035156 0 .070312 0 .109374v50.542969c0 8.285157 6.71875 15 15 15h6.398438c8.878906 0 16.101562 7.222657 16.101562 16.097657v16.101562h-71.226562l-13.882812-124.980469c-.914063-8.234375-8.328126-14.167969-16.5625-13.253906-8.234376.914063-14.167969 8.332031-13.253907 16.5625l1.800781 16.191406c-33.109374 2.246094-65.761718 10.6875-94.207031 19.550781 2.875-8.230468 4.378907-17.023437 4.378907-26.113281v-2.503906c0-8.28125-6.714844-15-15-15-8.28125 0-15 6.71875-15 15v2.503906c0 13.464844-5.261719 25.828125-14.816407 34.820313-10.445312 9.828125-25.019531 15.027344-42.148437 15.027344-8.285156 0-15 6.714843-15 15 0 8.28125 6.714844 15 15 15h90.378906c13.785156 0 25 11.214843 25 25v7.195312l-171.9375-.003906c-2.753906 0-4.996094-2.238282-5-4.984375l-.085938-111.664063c-.027343-35.457031 28.773438-64.617187 64.214844-65.042968h60.074219c.109375 0 .210937-.015626.320313-.019532h154.257812c8.285156 0 15-6.714844 15-15v-81.160156c0-35.566406-19.503906-66.660156-48.378906-83.160156 1.445312-28.832032 1.355468-56.628906.988281-75.695313-.078125-4.050781 1.441406-7.878906 4.28125-10.773437 2.84375-2.898438 6.648437-4.496094 10.714844-4.496094h57.382812c2.863281 0 5.65625.816406 8.070313 2.359375l21.707031 13.863281.015625 40.871094zm56.707031-42.730469h14.996094c8.273438 0 15 6.730469 15 15v15h-29.996094zm0 0"/></svg>