<svg height="512pt" viewBox="0 0 512.19608 512" width="512pt" xmlns="http://www.w3.org/2000/svg"><path d="m486.570312 334.109375v-18.277344c.0625-40.984375-20.921874-79.132812-55.570312-101.023437-34.648438-21.894532-78.109375-24.460938-115.097656-6.804688v-41.507812c.007812-16.535156 8.71875-31.847656 22.929687-40.304688 14.210938-8.457031 31.820313-8.8125 46.363281-.933594.296876.167969.585938.410157.851563.578126-1.207031 3.472656-1.84375 7.117187-1.878906 10.796874-.035157 17.910157 13.78125 32.804688 31.644531 34.109376 17.867188 1.304687 33.703125-11.417969 36.269531-29.148438 2.570313-17.726562-9-34.421875-26.5-38.242188-8.261719-59.015624-58.621093-103.003906-118.210937-103.2539058-65.964844.0429688-119.425782 53.5039058-119.46875 119.4687498v84.742188c-36.714844-14.113282-78.027344-9.222656-110.433594 13.066406-32.40625 22.292969-51.746094 59.121094-51.699219 98.457031v18.277344c-15.949219 4.066406-26.746093 18.90625-25.6992185 35.332031 1.0429685 16.425782 13.6328125 29.78125 29.9687495 31.789063 16.335938 2.011719 31.789063-7.894531 36.785157-23.574219 4.996093-15.683594-1.878907-32.699219-16.367188-40.507812 1.75-2.722657 3.773438-5.261719 6.03125-7.578126 13.433594-13.4375 33.640625-17.460937 51.195313-10.195312 17.558594 7.265625 29.011718 24.390625 29.019531 43.390625v64h-42.667969c-2.628906 0-5.109375 1.210937-6.726562 3.28125-1.617188 2.074219-2.1875 4.773437-1.550782 7.324219l17.066407 68.265625c.953125 3.796875 4.363281 6.460937 8.277343 6.460937h290.132813c3.914063 0 7.328125-2.664062 8.277344-6.460937l17.066406-68.265625c.640625-2.550782.070313-5.25-1.546875-7.324219-1.617188-2.070313-4.101562-3.28125-6.730469-3.28125h-42.664062v-64c-.03125-18.992187 11.386719-36.132813 28.925781-43.417969s37.738281-3.285156 51.175781 10.136719c2.296875 2.351563 4.355469 4.921875 6.144531 7.679687-14.398437 7.804688-21.207031 24.75-16.210937 40.347657 4.996094 15.597656 20.378906 25.433593 36.632813 23.421875 16.253906-2.007813 28.777343-15.300782 29.820312-31.644532s-9.6875-31.117187-25.554688-35.179687zm-17.367187-24.164063c-2.683594-3.738281-5.644531-7.265624-8.855469-10.558593-25.628906-25.640625-64.179687-33.316407-97.671875-19.441407-33.492187 13.875-55.324219 46.566407-55.304687 82.820313v64h-42.667969v-110.933594c-.070313-55.421875 43.988281-100.828125 99.386719-102.421875 55.398437-1.59375 101.996094 41.199219 105.113281 96.535156zm-170.367187-143.449218v51.40625c-13.90625 9.582031-25.554688 22.082031-34.132813 36.625v-88.03125c-.003906-25.824219 13.726563-49.707032 36.050781-62.699219 22.320313-12.988281 49.867188-13.128906 72.320313-.367187-3.378907-.589844-6.804688-.902344-10.238281-.933594-35.332032.039062-63.960938 28.671875-64 64zm136.535156-29.863282c0 9.425782-7.644532 17.066407-17.070313 17.066407-9.421875 0-17.066406-7.640625-17.066406-17.066407 0-9.425781 7.644531-17.066406 17.066406-17.066406 9.425781 0 17.070313 7.640625 17.070313 17.066406zm-230.402344-17.066406c.039062-56.539062 45.863281-102.363281 102.402344-102.402344 50.488281.207032 93.351562 37.050782 101.136718 86.9375-1.757812.523438-3.46875 1.183594-5.121093 1.980469-.921875-1.023437-1.84375-2.046875-2.765625-2.960937-25.625-25.648438-64.179688-33.328125-97.675782-19.449219-33.496093 13.875-55.328124 46.570313-55.308593 82.824219v88.03125c-10.335938-17.476563-25.039063-31.96875-42.667969-42.042969zm-59.734375 93.863282c16.675781-.027344 33.105469 4.039062 47.839844 11.847656h.066406c9.015625 4.796875 17.265625 10.90625 24.484375 18.132812 19.277344 19.160156 30.085938 45.238282 30.011719 72.421875v110.933594h-42.667969v-64c.019531-36.265625-21.820312-68.964844-55.324219-82.835937-33.503906-13.871094-72.066406-6.179688-97.6875 19.484374-3.203125 3.28125-6.152343 6.800782-8.824219 10.53125 3.140626-54.121093 47.894532-96.425781 102.101563-96.515624zm-110.933594 170.667968c-9.421875 0-17.066406-7.640625-17.066406-17.066406s7.644531-17.066406 17.066406-17.066406c9.425781 0 17.070313 7.640625 17.070313 17.066406s-7.644532 17.066406-17.070313 17.066406zm55.46875-85.332031c-3.378906.019531-6.75.304687-10.085937.851563 22.457031-12.691407 49.960937-12.5 72.242187.5 22.277344 13 35.976563 36.851562 35.976563 62.648437v64h-34.132813v-64c-.039062-35.332031-28.667969-63.964844-64-64zm304.800781 196.265625h-276.804687l-12.796875-51.199219h302.402344zm-36-132.265625v64h-34.132812v-64c0-25.796875 13.699219-49.648437 35.976562-62.648437 22.277344-13 49.785157-13.191407 72.242188-.5-3.335938-.546876-6.707031-.832032-10.085938-.851563-35.332031.035156-63.964843 28.667969-64 64zm119.464844 21.332031c-9.425781 0-17.066406-7.640625-17.066406-17.066406s7.640625-17.066406 17.066406-17.066406c9.425782 0 17.066406 7.640625 17.066406 17.066406s-7.640624 17.066406-17.066406 17.066406zm0 0"/></svg>